<mxfile host="app.diagrams.net" agent="Mozilla/5.0 (X11; Ubuntu; Linux x86_64; rv:133.0) Gecko/20100101 Firefox/133.0" version="26.0.3">
  <diagram name="Page-1" id="37wTZpXHumTaaNHv8bFl">
    <mxGraphModel dx="779" dy="394" grid="1" gridSize="10" guides="1" tooltips="1" connect="1" arrows="1" fold="1" page="1" pageScale="1" pageWidth="850" pageHeight="1100" math="0" shadow="0">
      <root>
        <mxCell id="0" />
        <mxCell id="1" parent="0" />
        <mxCell id="5dOilhQMH5m4UJ5b8Qh--1" value="" style="rounded=0;whiteSpace=wrap;html=1;fillColor=#ffe6cc;strokeColor=#d79b00;" vertex="1" parent="1">
          <mxGeometry x="320" y="90" width="310" height="230" as="geometry" />
        </mxCell>
        <mxCell id="5dOilhQMH5m4UJ5b8Qh--2" value="UART" style="text;html=1;align=center;verticalAlign=middle;whiteSpace=wrap;rounded=0;" vertex="1" parent="1">
          <mxGeometry x="320" y="90" width="60" height="30" as="geometry" />
        </mxCell>
        <mxCell id="5dOilhQMH5m4UJ5b8Qh--3" value="TX" style="text;html=1;align=center;verticalAlign=middle;whiteSpace=wrap;rounded=0;" vertex="1" parent="1">
          <mxGeometry x="320" y="150" width="50" height="20" as="geometry" />
        </mxCell>
        <mxCell id="5dOilhQMH5m4UJ5b8Qh--4" value="RX" style="text;html=1;align=center;verticalAlign=middle;whiteSpace=wrap;rounded=0;" vertex="1" parent="1">
          <mxGeometry x="320" y="170" width="50" height="20" as="geometry" />
        </mxCell>
        <mxCell id="5dOilhQMH5m4UJ5b8Qh--5" value="RTS_N" style="text;html=1;align=center;verticalAlign=middle;whiteSpace=wrap;rounded=0;" vertex="1" parent="1">
          <mxGeometry x="320" y="250" width="60" height="20" as="geometry" />
        </mxCell>
        <mxCell id="5dOilhQMH5m4UJ5b8Qh--6" value="CTS_N" style="text;html=1;align=center;verticalAlign=middle;whiteSpace=wrap;rounded=0;" vertex="1" parent="1">
          <mxGeometry x="320" y="270" width="60" height="20" as="geometry" />
        </mxCell>
        <mxCell id="5dOilhQMH5m4UJ5b8Qh--7" value="" style="endArrow=classic;html=1;rounded=0;" edge="1" parent="1">
          <mxGeometry width="50" height="50" relative="1" as="geometry">
            <mxPoint x="320" y="159.71" as="sourcePoint" />
            <mxPoint x="240" y="159.71" as="targetPoint" />
          </mxGeometry>
        </mxCell>
        <mxCell id="5dOilhQMH5m4UJ5b8Qh--8" value="" style="endArrow=none;html=1;rounded=0;startArrow=classic;startFill=1;endFill=0;" edge="1" parent="1">
          <mxGeometry width="50" height="50" relative="1" as="geometry">
            <mxPoint x="320" y="179.71" as="sourcePoint" />
            <mxPoint x="240" y="179.71" as="targetPoint" />
          </mxGeometry>
        </mxCell>
        <mxCell id="5dOilhQMH5m4UJ5b8Qh--9" value="" style="endArrow=classic;html=1;rounded=0;" edge="1" parent="1">
          <mxGeometry width="50" height="50" relative="1" as="geometry">
            <mxPoint x="320" y="259.71000000000004" as="sourcePoint" />
            <mxPoint x="240" y="259.71000000000004" as="targetPoint" />
          </mxGeometry>
        </mxCell>
        <mxCell id="5dOilhQMH5m4UJ5b8Qh--10" value="" style="endArrow=none;html=1;rounded=0;startArrow=classic;startFill=1;endFill=0;" edge="1" parent="1">
          <mxGeometry width="50" height="50" relative="1" as="geometry">
            <mxPoint x="320" y="279.71000000000004" as="sourcePoint" />
            <mxPoint x="240" y="279.71000000000004" as="targetPoint" />
          </mxGeometry>
        </mxCell>
        <mxCell id="5dOilhQMH5m4UJ5b8Qh--11" value="" style="rounded=0;whiteSpace=wrap;html=1;fillColor=#d5e8d4;strokeColor=#82b366;" vertex="1" parent="1">
          <mxGeometry x="393.5" y="170" width="85" height="50" as="geometry" />
        </mxCell>
        <mxCell id="5dOilhQMH5m4UJ5b8Qh--12" value="" style="rounded=0;whiteSpace=wrap;html=1;fillColor=#e1d5e7;strokeColor=#9673a6;" vertex="1" parent="1">
          <mxGeometry x="394" y="110" width="85" height="50" as="geometry" />
        </mxCell>
        <mxCell id="5dOilhQMH5m4UJ5b8Qh--13" value="RX" style="text;html=1;align=center;verticalAlign=middle;whiteSpace=wrap;rounded=0;" vertex="1" parent="1">
          <mxGeometry x="392.5" y="175" width="86" height="40" as="geometry" />
        </mxCell>
        <mxCell id="5dOilhQMH5m4UJ5b8Qh--14" value="TX" style="text;html=1;align=center;verticalAlign=middle;whiteSpace=wrap;rounded=0;" vertex="1" parent="1">
          <mxGeometry x="393" y="115" width="86" height="40" as="geometry" />
        </mxCell>
        <mxCell id="5dOilhQMH5m4UJ5b8Qh--16" value="Clock divider" style="rounded=0;whiteSpace=wrap;html=1;fillColor=#D2FFBC;fontColor=#333333;strokeColor=#7AC47E;" vertex="1" parent="1">
          <mxGeometry x="490" y="110" width="90" height="40" as="geometry" />
        </mxCell>
        <mxCell id="5dOilhQMH5m4UJ5b8Qh--17" value="Flow control" style="rounded=0;whiteSpace=wrap;html=1;fillColor=#f8cecc;strokeColor=#b85450;" vertex="1" parent="1">
          <mxGeometry x="393" y="240" width="87" height="50" as="geometry" />
        </mxCell>
        <mxCell id="5dOilhQMH5m4UJ5b8Qh--18" value="" style="rounded=0;whiteSpace=wrap;html=1;fillColor=#fff2cc;strokeColor=#d6b656;" vertex="1" parent="1">
          <mxGeometry x="490" y="180" width="140" height="140" as="geometry" />
        </mxCell>
        <mxCell id="5dOilhQMH5m4UJ5b8Qh--19" value="" style="endArrow=classic;html=1;rounded=0;startArrow=classic;startFill=1;" edge="1" parent="1">
          <mxGeometry width="50" height="50" relative="1" as="geometry">
            <mxPoint x="631" y="280" as="sourcePoint" />
            <mxPoint x="711" y="280" as="targetPoint" />
          </mxGeometry>
        </mxCell>
        <mxCell id="5dOilhQMH5m4UJ5b8Qh--20" value="AXI4 bus" style="text;html=1;align=center;verticalAlign=middle;whiteSpace=wrap;rounded=0;" vertex="1" parent="1">
          <mxGeometry x="580" y="270" width="50" height="20" as="geometry" />
        </mxCell>
        <mxCell id="5dOilhQMH5m4UJ5b8Qh--21" value="irq" style="text;html=1;align=center;verticalAlign=middle;whiteSpace=wrap;rounded=0;" vertex="1" parent="1">
          <mxGeometry x="580" y="185" width="50" height="20" as="geometry" />
        </mxCell>
        <mxCell id="5dOilhQMH5m4UJ5b8Qh--22" value="wakeup" style="text;html=1;align=center;verticalAlign=middle;whiteSpace=wrap;rounded=0;" vertex="1" parent="1">
          <mxGeometry x="580" y="205" width="50" height="20" as="geometry" />
        </mxCell>
        <mxCell id="5dOilhQMH5m4UJ5b8Qh--23" value="" style="endArrow=classic;html=1;rounded=0;" edge="1" parent="1">
          <mxGeometry width="50" height="50" relative="1" as="geometry">
            <mxPoint x="630" y="195" as="sourcePoint" />
            <mxPoint x="710" y="195" as="targetPoint" />
          </mxGeometry>
        </mxCell>
        <mxCell id="5dOilhQMH5m4UJ5b8Qh--24" value="" style="endArrow=classic;html=1;rounded=0;" edge="1" parent="1">
          <mxGeometry width="50" height="50" relative="1" as="geometry">
            <mxPoint x="630" y="214.71" as="sourcePoint" />
            <mxPoint x="710" y="214.71" as="targetPoint" />
          </mxGeometry>
        </mxCell>
        <mxCell id="5dOilhQMH5m4UJ5b8Qh--25" value="clk" style="text;html=1;align=center;verticalAlign=middle;whiteSpace=wrap;rounded=0;" vertex="1" parent="1">
          <mxGeometry x="580" y="110" width="50" height="20" as="geometry" />
        </mxCell>
        <mxCell id="5dOilhQMH5m4UJ5b8Qh--26" value="rst_n" style="text;html=1;align=center;verticalAlign=middle;whiteSpace=wrap;rounded=0;" vertex="1" parent="1">
          <mxGeometry x="580" y="130" width="50" height="20" as="geometry" />
        </mxCell>
        <mxCell id="5dOilhQMH5m4UJ5b8Qh--27" value="" style="endArrow=none;html=1;rounded=0;startArrow=classic;startFill=1;endFill=0;" edge="1" parent="1">
          <mxGeometry width="50" height="50" relative="1" as="geometry">
            <mxPoint x="630" y="120" as="sourcePoint" />
            <mxPoint x="710" y="120" as="targetPoint" />
          </mxGeometry>
        </mxCell>
        <mxCell id="5dOilhQMH5m4UJ5b8Qh--28" value="" style="endArrow=none;html=1;rounded=0;startArrow=classic;startFill=1;endFill=0;" edge="1" parent="1">
          <mxGeometry width="50" height="50" relative="1" as="geometry">
            <mxPoint x="630" y="139.71" as="sourcePoint" />
            <mxPoint x="710" y="139.71" as="targetPoint" />
          </mxGeometry>
        </mxCell>
        <mxCell id="5dOilhQMH5m4UJ5b8Qh--30" value="System interface" style="text;html=1;align=center;verticalAlign=middle;whiteSpace=wrap;rounded=0;" vertex="1" parent="1">
          <mxGeometry x="490" y="185" width="80" height="30" as="geometry" />
        </mxCell>
      </root>
    </mxGraphModel>
  </diagram>
</mxfile>
